<?xml version="1.0" standalone="no"?><!DOCTYPE svg PUBLIC "-//W3C//DTD SVG 1.1//EN" "http://www.w3.org/Graphics/SVG/1.1/DTD/svg11.dtd"><svg t="1579605177968" class="icon" viewBox="0 0 1024 1024" version="1.1" xmlns="http://www.w3.org/2000/svg" p-id="2205" xmlns:xlink="http://www.w3.org/1999/xlink" width="200" height="200"><defs><style type="text/css"></style></defs><path d="M694.857143 768v73.142857c0 20.004571-16.566857 36.571429-36.571429 36.571429H365.714286c-20.004571 0-36.571429-16.566857-36.571429-36.571429v-73.142857c0-20.004571 16.566857-36.571429 36.571429-36.571429h36.571428v-219.428571H365.714286c-20.004571 0-36.571429-16.566857-36.571429-36.571429v-73.142857c0-20.004571 16.566857-36.571429 36.571429-36.571428h219.428571c20.004571 0 36.571429 16.566857 36.571429 36.571428v329.142857h36.571428c20.004571 0 36.571429 16.566857 36.571429 36.571429zM621.714286 109.714286v109.714285c0 20.004571-16.566857 36.571429-36.571429 36.571429H438.857143c-20.004571 0-36.571429-16.566857-36.571429-36.571429V109.714286c0-20.004571 16.566857-36.571429 36.571429-36.571429h146.285714c20.004571 0 36.571429 16.566857 36.571429 36.571429z" fill="#333333" p-id="2206"></path></svg>