<?xml version="1.0" standalone="no"?><!DOCTYPE svg PUBLIC "-//W3C//DTD SVG 1.1//EN" "http://www.w3.org/Graphics/SVG/1.1/DTD/svg11.dtd"><svg class="icon" width="200px" height="200.00px" viewBox="0 0 1024 1024" version="1.1" xmlns="http://www.w3.org/2000/svg"><path fill="#333333" d="M859.776 403.029333l-268.16-296.277333c-0.085333-13.269333-25.728-35.413333-39.808-35.413333-22.016 0-39.808 15.872-39.808 35.541333v198.101333l79.616 79.616v-0.426666l215.978667 81.792c43.136 16.341333 81.792-30.293333 52.181333-62.933334zM512 391.765333v-0.170666l79.616 79.573333v0.213333l227.712 227.712a54.016 54.016 0 1 1-76.373333 76.416l-151.338667-151.338666v83.968a198.997333 198.997333 0 1 1-198.997333-198.997334h83.925333L228.352 260.949333a54.016 54.016 0 0 1 76.373333-76.416L512 391.765333z" /></svg>